<svg width="169" height="40" viewBox="0 0 169 40" fill="none" xmlns="http://www.w3.org/2000/svg">
<g clip-path="url(#clip0_32_62447)">
<g clip-path="url(#clip1_32_62447)">
<path fill-rule="evenodd" clip-rule="evenodd" d="M25.5557 11.6853C23.9112 10.5865 21.9778 10 20 10V0C23.9556 0 27.8224 1.17298 31.1114 3.37061C34.4004 5.56823 36.9638 8.69181 38.4776 12.3463C39.9913 16.0008 40.3874 20.0222 39.6157 23.9018C38.844 27.7814 36.9392 31.3451 34.1421 34.1421C31.3451 36.9392 27.7814 38.844 23.9018 39.6157C20.0222 40.3874 16.0008 39.9913 12.3463 38.4776C8.69181 36.9638 5.56823 34.4004 3.37061 31.1114C1.17298 27.8224 0 23.9556 0 20H10C10 21.9778 10.5865 23.9112 11.6853 25.5557C12.7841 27.2002 14.3459 28.4819 16.1732 29.2388C18.0004 29.9957 20.0111 30.1937 21.9509 29.8078C23.8907 29.422 25.6725 28.4696 27.0711 27.0711C28.4696 25.6725 29.422 23.8907 29.8078 21.9509C30.1937 20.0111 29.9957 18.0004 29.2388 16.1732C28.4819 14.3459 27.2002 12.7841 25.5557 11.6853Z" fill="black"/>
<path fill-rule="evenodd" clip-rule="evenodd" d="M10 4.33125e-06C10 1.31322 9.74135 2.61358 9.2388 3.82683C8.73625 5.04009 7.99965 6.14248 7.07106 7.07107C6.14249 7.99966 5.04009 8.73625 3.82683 9.2388C2.61357 9.74134 1.31322 10 4.3711e-07 10L0 20C2.62644 20 5.22715 19.4827 7.65368 18.4776C10.0802 17.4725 12.285 15.9993 14.1421 14.1421C15.9993 12.285 17.4725 10.0802 18.4776 7.65367C19.4827 5.22715 20 2.62643 20 0L10 4.33125e-06Z" fill="black"/>
</g>
<path d="M52.275 30L58.575 11.375H63.725L70.025 30H65.8L64.55 26.2H57.725L56.475 30H52.275ZM58.8 22.825H63.475L60.625 14.025H61.675L58.8 22.825ZM71.9605 30V11.375H75.8355V30H71.9605ZM83.6305 30V11.375H91.5055C92.7888 11.375 93.8888 11.5917 94.8055 12.025C95.7221 12.4583 96.4221 13.0833 96.9055 13.9C97.3888 14.7 97.6305 15.675 97.6305 16.825C97.6305 17.6417 97.4055 18.425 96.9555 19.175C96.5055 19.9083 95.7638 20.525 94.7305 21.025V19.125C95.7138 19.5083 96.4721 19.9667 97.0055 20.5C97.5388 21.0333 97.9055 21.6167 98.1055 22.25C98.3055 22.8667 98.4055 23.5167 98.4055 24.2C98.4055 26.0333 97.7971 27.4583 96.5805 28.475C95.3638 29.4917 93.6721 30 91.5055 30H83.6305ZM87.5055 26.625H91.9555C92.7388 26.625 93.3638 26.4 93.8305 25.95C94.2971 25.5 94.5305 24.9167 94.5305 24.2C94.5305 23.4667 94.2971 22.875 93.8305 22.425C93.3638 21.975 92.7388 21.75 91.9555 21.75H87.5055V26.625ZM87.5055 18.375H91.7805C92.3805 18.375 92.8555 18.2083 93.2055 17.875C93.5721 17.525 93.7555 17.0667 93.7555 16.5C93.7555 15.9333 93.5721 15.4833 93.2055 15.15C92.8555 14.8 92.3805 14.625 91.7805 14.625H87.5055V18.375ZM105.516 30.3C104.416 30.3 103.475 30.0667 102.691 29.6C101.925 29.1167 101.341 28.45 100.941 27.6C100.541 26.75 100.341 25.7583 100.341 24.625V16.35H104.091V24.325C104.091 24.8417 104.191 25.3 104.391 25.7C104.608 26.0833 104.908 26.3833 105.291 26.6C105.675 26.8167 106.108 26.925 106.591 26.925C107.091 26.925 107.525 26.8167 107.891 26.6C108.275 26.3833 108.566 26.0833 108.766 25.7C108.983 25.3 109.091 24.8417 109.091 24.325V16.35H112.841V30H109.341V27.3L109.541 27.9C109.225 28.7167 108.708 29.325 107.991 29.725C107.291 30.1083 106.466 30.3 105.516 30.3ZM115.582 30V16.35H119.332V30H115.582ZM115.582 15.125V11.375H119.332V15.125H115.582ZM122.076 30V11.075H125.826V30H122.076ZM134.995 30.3C133.662 30.3 132.47 29.9833 131.42 29.35C130.37 28.7167 129.537 27.8583 128.92 26.775C128.32 25.6917 128.02 24.4917 128.02 23.175C128.02 21.8417 128.329 20.6417 128.945 19.575C129.562 18.4917 130.395 17.6333 131.445 17C132.495 16.3667 133.67 16.05 134.97 16.05C135.97 16.05 136.854 16.2417 137.62 16.625C138.404 16.9917 139.02 17.5167 139.47 18.2L138.895 18.95V11.075H142.645V30H139.145V27.5L139.495 28.275C139.029 28.9417 138.395 29.45 137.595 29.8C136.795 30.1333 135.929 30.3 134.995 30.3ZM135.445 26.925C136.129 26.925 136.729 26.7667 137.245 26.45C137.762 26.1333 138.162 25.6917 138.445 25.125C138.745 24.5583 138.895 23.9083 138.895 23.175C138.895 22.4417 138.745 21.7917 138.445 21.225C138.162 20.6583 137.762 20.2167 137.245 19.9C136.729 19.5833 136.129 19.425 135.445 19.425C134.762 19.425 134.145 19.5917 133.595 19.925C133.062 20.2417 132.645 20.6833 132.345 21.25C132.045 21.8 131.895 22.4417 131.895 23.175C131.895 23.9083 132.045 24.5583 132.345 25.125C132.645 25.6917 133.062 26.1333 133.595 26.45C134.145 26.7667 134.762 26.925 135.445 26.925ZM151.967 30.3C150.517 30.3 149.258 29.9833 148.192 29.35C147.125 28.7 146.3 27.8333 145.717 26.75C145.133 25.6667 144.842 24.4667 144.842 23.15C144.842 21.7833 145.142 20.5667 145.742 19.5C146.358 18.4333 147.183 17.5917 148.217 16.975C149.25 16.3583 150.417 16.05 151.717 16.05C152.8 16.05 153.758 16.225 154.592 16.575C155.425 16.9083 156.125 17.3833 156.692 18C157.275 18.6167 157.717 19.3333 158.017 20.15C158.317 20.95 158.467 21.825 158.467 22.775C158.467 23.0417 158.45 23.3083 158.417 23.575C158.4 23.825 158.358 24.0417 158.292 24.225H148.067V21.475H156.167L154.392 22.775C154.558 22.0583 154.55 21.425 154.367 20.875C154.183 20.3083 153.858 19.8667 153.392 19.55C152.942 19.2167 152.383 19.05 151.717 19.05C151.067 19.05 150.508 19.2083 150.042 19.525C149.575 19.8417 149.225 20.3083 148.992 20.925C148.758 21.5417 148.667 22.2917 148.717 23.175C148.65 23.9417 148.742 24.6167 148.992 25.2C149.242 25.7833 149.625 26.2417 150.142 26.575C150.658 26.8917 151.283 27.05 152.017 27.05C152.683 27.05 153.25 26.9167 153.717 26.65C154.2 26.3833 154.575 26.0167 154.842 25.55L157.842 26.975C157.575 27.6417 157.15 28.225 156.567 28.725C156 29.225 155.325 29.6167 154.542 29.9C153.758 30.1667 152.9 30.3 151.967 30.3ZM160.675 30V16.35H164.175V19.625L163.925 19.15C164.225 18 164.716 17.225 165.4 16.825C166.1 16.4083 166.925 16.2 167.875 16.2H168.675V19.45H167.5C166.583 19.45 165.841 19.7333 165.275 20.3C164.708 20.85 164.425 21.6333 164.425 22.65V30H160.675Z" fill="black"/>
</g>
<defs>
<clipPath id="clip0_32_62447">
<rect width="169" height="40" fill="white"/>
</clipPath>
<clipPath id="clip1_32_62447">
<rect width="40" height="40" fill="white"/>
</clipPath>
</defs>
</svg>
