<svg width="360" height="323" viewBox="0 0 360 323" fill="none" xmlns="http://www.w3.org/2000/svg">
<path d="M18.3654 142.581C17.5002 141.168 15.6533 140.724 14.2403 141.589C12.8274 142.455 12.3833 144.302 13.2486 145.715L18.3654 142.581ZM204.193 135.014L204.323 132.016L204.322 132.016L204.193 135.014ZM165.161 237.96L167.233 235.791L167.233 235.791L165.161 237.96ZM332.216 119.157C332.343 117.505 331.107 116.063 329.455 115.936C327.803 115.809 326.361 117.046 326.234 118.698L332.216 119.157ZM7.06421 167.088C6.78442 168.721 7.88146 170.272 9.51452 170.552C11.1476 170.831 12.6983 169.734 12.978 168.101L7.06421 167.088ZM14.3803 142.152L14.5059 139.154C12.9982 139.091 11.6782 140.158 11.4233 141.645L14.3803 142.152ZM40.5054 145.706C42.1591 145.604 43.4165 144.18 43.3139 142.526C43.2114 140.873 41.7877 139.615 40.134 139.718L40.5054 145.706ZM15.807 144.148C13.2486 145.715 13.2493 145.716 13.2502 145.717C13.2509 145.718 13.2521 145.72 13.2534 145.722C13.2559 145.727 13.2595 145.732 13.264 145.74C13.273 145.754 13.2859 145.775 13.3026 145.802C13.3361 145.856 13.3849 145.935 13.4489 146.037C13.5769 146.241 13.7657 146.541 14.0137 146.927C14.5096 147.701 15.2428 148.827 16.2013 150.248C18.1179 153.092 20.9372 157.124 24.5643 161.904C31.813 171.459 42.3153 184.04 55.3137 196.109C81.1752 220.12 117.628 242.737 158.295 234.044L157.041 228.177C119.355 236.233 84.8768 215.369 59.3962 191.712C46.7236 179.946 36.4518 167.646 29.3443 158.278C25.7933 153.597 23.039 149.658 21.1765 146.895C20.2454 145.513 19.5376 144.427 19.065 143.69C18.8288 143.321 18.6513 143.04 18.5342 142.853C18.4757 142.759 18.4322 142.689 18.404 142.644C18.3899 142.621 18.3796 142.604 18.3732 142.594C18.37 142.589 18.3677 142.585 18.3664 142.583C18.3658 142.582 18.3655 142.581 18.3652 142.581C18.3652 142.581 18.3654 142.581 15.807 144.148ZM158.295 234.044C198.476 225.455 219.538 201.045 225.947 178.143C229.132 166.761 228.717 155.64 225.035 147.107C221.313 138.483 214.173 132.444 204.323 132.016L204.063 138.011C211.206 138.321 216.542 142.569 219.526 149.484C222.55 156.492 223.07 166.161 220.169 176.526C214.407 197.117 195.213 220.017 157.041 228.177L158.295 234.044ZM204.322 132.016C194.904 131.61 184.874 135.688 175.945 142.32C166.976 148.983 158.849 158.414 153.212 169.21C141.918 190.839 140.439 218.501 163.089 240.13L167.233 235.791C147.05 216.518 148.095 191.973 158.53 171.987C163.757 161.977 171.295 153.249 179.523 147.137C187.792 140.995 196.49 137.684 204.063 138.011L204.322 132.016ZM163.089 240.13C174.628 251.152 190.776 254.777 208.182 252.81C225.584 250.844 244.525 243.277 262.205 231.516C297.529 208.017 328.52 167.282 332.216 119.157L326.234 118.698C322.714 164.538 293.082 203.769 258.882 226.52C241.801 237.883 223.755 245.012 207.508 246.848C191.265 248.684 177.103 245.218 167.233 235.791L163.089 240.13ZM12.978 168.101L17.3372 142.658L11.4233 141.645L7.06421 167.088L12.978 168.101ZM14.3803 142.152C14.2546 145.149 14.2547 145.149 14.2549 145.149C14.2551 145.149 14.2554 145.149 14.2557 145.149C14.2564 145.149 14.2574 145.149 14.2587 145.149C14.2614 145.149 14.2652 145.149 14.2704 145.15C14.2806 145.15 14.2958 145.151 14.3159 145.152C14.3559 145.153 14.4153 145.156 14.4928 145.159C14.6478 145.165 14.8754 145.174 15.1667 145.186C15.7493 145.21 16.5867 145.243 17.6072 145.281C19.6478 145.358 22.4228 145.458 25.3579 145.548C31.1442 145.726 37.7986 145.874 40.5054 145.706L40.134 139.718C37.7737 139.864 31.4584 139.733 25.5418 139.551C22.6254 139.462 19.8656 139.362 17.8343 139.286C16.8188 139.247 15.986 139.214 15.4073 139.191C15.118 139.179 14.8923 139.17 14.739 139.164C14.6624 139.161 14.6039 139.158 14.5647 139.157C14.5451 139.156 14.5303 139.155 14.5204 139.155C14.5155 139.155 14.5118 139.154 14.5094 139.154C14.5082 139.154 14.5073 139.154 14.5067 139.154C14.5064 139.154 14.5062 139.154 14.506 139.154C14.5059 139.154 14.5059 139.154 14.3803 142.152Z" fill="white"/>
</svg>
