<svg width="20" height="21" viewBox="0 0 20 21" fill="none" xmlns="http://www.w3.org/2000/svg">
<path fill-rule="evenodd" clip-rule="evenodd" d="M10 20.5C15.5228 20.5 20 16.0228 20 10.5C20 4.97715 15.5228 0.5 10 0.5C4.47715 0.5 0 4.97715 0 10.5C0 16.0228 4.47715 20.5 10 20.5ZM14.592 7.96049C14.8463 7.63353 14.7874 7.16232 14.4605 6.90802C14.1335 6.65372 13.6623 6.71262 13.408 7.03958L9.40099 12.1914C9.31189 12.306 9.14429 12.3209 9.03641 12.2238L6.50173 9.94256C6.19385 9.66547 5.71963 9.69043 5.44254 9.99831C5.16544 10.3062 5.1904 10.7804 5.49828 11.0575L8.03296 13.3387C8.78809 14.0183 9.9613 13.9143 10.585 13.1123L14.592 7.96049Z" fill="#5D7BE5"/>
</svg>
