<svg width="59" height="59" viewBox="0 0 59 59" fill="none" xmlns="http://www.w3.org/2000/svg">
<rect width="59" height="59" rx="29.5" fill="url(#paint0_linear_25_82269)"/>
<path fill-rule="evenodd" clip-rule="evenodd" d="M29.5006 35.2657C30.0626 35.2657 30.5181 35.7213 30.5181 36.2832V41.0316H33.5706C34.1326 41.0316 34.5881 41.4871 34.5881 42.0491C34.5881 42.611 34.1326 43.0666 33.5706 43.0666H25.4306C24.8686 43.0666 24.4131 42.611 24.4131 42.0491C24.4131 41.4871 24.8686 41.0316 25.4306 41.0316H28.4831V36.2832C28.4831 35.7213 28.9387 35.2657 29.5006 35.2657Z" fill="white"/>
<path opacity="0.4" d="M15.9346 20.0033C15.9346 17.7555 17.7568 15.9333 20.0046 15.9333H38.998C41.2458 15.9333 43.068 17.7555 43.068 20.0033V33.57C43.068 35.8177 41.2458 37.6399 38.998 37.6399H20.0046C17.7568 37.6399 15.9346 35.8177 15.9346 33.57V20.0033Z" fill="white"/>
<path d="M20.0046 37.6399H38.998C41.2458 37.6399 43.068 35.8177 43.068 33.57V32.2133H15.9346V33.57C15.9346 35.8177 17.7568 37.6399 20.0046 37.6399Z" fill="white"/>
<defs>
<linearGradient id="paint0_linear_25_82269" x1="49.3279" y1="3.79926e-07" x2="0" y2="59" gradientUnits="userSpaceOnUse">
<stop stop-color="#5D7BE5"/>
<stop offset="1" stop-color="#4B6CE2"/>
</linearGradient>
</defs>
</svg>
