<svg width="242" height="208" viewBox="0 0 242 208" fill="none" xmlns="http://www.w3.org/2000/svg">
<path d="M207.27 146.218C210.245 146.218 212.657 143.806 212.657 140.831C212.657 137.856 210.245 135.444 207.27 135.444C204.295 135.444 201.883 137.856 201.883 140.831C201.883 143.806 204.295 146.218 207.27 146.218Z" fill="#FFE9D0"/>
<path d="M138.008 7.69569C140.133 7.69569 141.856 5.97295 141.856 3.84785C141.856 1.72274 140.133 0 138.008 0C135.883 0 134.16 1.72274 134.16 3.84785C134.16 5.97295 135.883 7.69569 138.008 7.69569Z" fill="#FF8200"/>
<path d="M45.551 126.979C47.6761 126.979 49.3988 125.256 49.3988 123.131C49.3988 121.006 47.6761 119.283 45.551 119.283C43.4259 119.283 41.7031 121.006 41.7031 123.131C41.7031 125.256 43.4259 126.979 45.551 126.979Z" fill="#FF8200"/>
<path d="M188.8 113.896C190.926 113.896 192.648 112.174 192.648 110.048C192.648 107.923 190.926 106.201 188.8 106.201C186.675 106.201 184.953 107.923 184.953 110.048C184.953 112.174 186.675 113.896 188.8 113.896Z" fill="#FFE9D0"/>
<path d="M71.8266 166.227C73.9517 166.227 75.6745 164.504 75.6745 162.379C75.6745 160.254 73.9517 158.531 71.8266 158.531C69.7015 158.531 67.9788 160.254 67.9788 162.379C67.9788 164.504 69.7015 166.227 71.8266 166.227Z" fill="#FFE9D0"/>
<path d="M193.418 177.001C195.543 177.001 197.266 175.278 197.266 173.153C197.266 171.028 195.543 169.305 193.418 169.305C191.293 169.305 189.57 171.028 189.57 173.153C189.57 175.278 191.293 177.001 193.418 177.001Z" fill="#DFE0DF"/>
<path d="M95.0578 207.047C97.1829 207.047 98.9057 205.324 98.9057 203.199C98.9057 201.074 97.1829 199.351 95.0578 199.351C92.9327 199.351 91.21 201.074 91.21 203.199C91.21 205.324 92.9327 207.047 95.0578 207.047Z" fill="#DFE0DF"/>
<path d="M168.777 33.6529C170.902 33.6529 172.624 31.9301 172.624 29.805C172.624 27.6799 170.902 25.9572 168.777 25.9572C166.651 25.9572 164.929 27.6799 164.929 29.805C164.929 31.9301 166.651 33.6529 168.777 33.6529Z" fill="#FFB66A"/>
<path d="M0.782457 82.3261C4.81154 82.5799 8.72313 83.7849 12.1966 85.8424C15.67 87.8999 18.6064 90.7512 20.7651 94.1626C21.3701 95.1298 22.1598 96.1925 21.741 97.3829C21.5951 97.8394 21.2987 98.2328 20.9002 98.4989C20.5017 98.7651 20.0247 98.8882 19.5472 98.8481C18.9519 98.7199 18.4152 98.3995 18.0201 97.9361C17.6249 97.4727 17.3931 96.8922 17.3606 96.2841C17.328 95.676 17.4964 95.074 17.8398 94.5711C18.1832 94.0682 18.6825 93.6922 19.2608 93.5011C22.0552 92.3091 24.8745 94.1513 27.1507 95.6215C32.3373 98.9714 38.0421 102.001 44.3268 102.383C50.1415 102.736 56.377 100.456 59.6113 95.4135C60.1771 94.5313 58.7722 93.7161 58.2092 94.5939C55.0015 99.5948 48.5171 101.391 42.879 100.618C39.5191 100.088 36.2748 98.9863 33.2866 97.3613C31.7369 96.557 30.2339 95.6655 28.7613 94.7284C27.36 93.7506 25.8747 92.8991 24.3228 92.184C21.7348 91.1208 18.3086 91.2039 16.5008 93.6516C14.8142 95.9352 16.1176 99.7369 18.9385 100.379C19.5573 100.501 20.1967 100.467 20.7994 100.282C21.4021 100.096 21.9492 99.763 22.3917 99.3136C22.8343 98.8642 23.1584 98.312 23.335 97.7065C23.5116 97.101 23.5351 96.4611 23.4036 95.8443C23.1222 94.4995 22.1096 93.1836 21.3258 92.0844C18.9708 88.7716 15.9026 86.0292 12.3472 84.0593C8.79188 82.0894 4.83988 80.9423 0.782364 80.7023C-0.26215 80.6506 -0.259425 82.2745 0.782364 82.326L0.782457 82.3261Z" fill="#FFB66A"/>
<path d="M241.692 131.479C238.992 129.741 236.743 127.388 235.128 124.612C233.513 121.837 232.579 118.719 232.402 115.513C232.357 114.607 232.22 113.562 232.973 112.898C233.251 112.637 233.609 112.479 233.989 112.449C234.369 112.418 234.748 112.518 235.064 112.731C235.428 113.051 235.676 113.481 235.771 113.956C235.866 114.431 235.802 114.924 235.589 115.359C235.376 115.794 235.026 116.147 234.592 116.363C234.159 116.579 233.666 116.647 233.19 116.555C230.788 116.3 229.544 113.928 228.533 112.024C226.229 107.687 223.442 103.372 219.225 100.671C215.324 98.1714 210.109 97.3378 205.908 99.5862C205.174 99.9795 205.833 101.09 206.565 100.699C210.731 98.4691 215.93 99.7352 219.546 102.457C221.674 104.128 223.5 106.151 224.946 108.438C225.71 109.597 226.409 110.799 227.068 112.02C227.662 113.242 228.364 114.41 229.164 115.508C230.55 117.249 232.961 118.52 235.166 117.521C235.657 117.266 236.082 116.901 236.406 116.453C236.731 116.005 236.946 115.488 237.035 114.942C237.124 114.396 237.084 113.837 236.918 113.309C236.752 112.782 236.465 112.3 236.08 111.903C235.698 111.579 235.241 111.354 234.75 111.25C234.259 111.145 233.751 111.164 233.269 111.305C232.788 111.445 232.348 111.703 231.991 112.055C231.634 112.407 231.369 112.843 231.222 113.322C230.995 114.449 230.99 115.61 231.207 116.739C231.559 119.952 232.626 123.046 234.332 125.792C236.038 128.539 238.338 130.867 241.062 132.607C241.768 133.047 242.395 131.919 241.692 131.479L241.692 131.479Z" fill="#FFB66A"/>
<path d="M108.913 24.9385C105.708 24.7366 102.597 23.7782 99.8346 22.1418C97.072 20.5054 94.7366 18.2376 93.0197 15.5243C92.5385 14.7551 91.9104 13.9098 92.2435 12.963C92.3595 12.6 92.5953 12.2871 92.9122 12.0754C93.2291 11.8637 93.6085 11.7658 93.9883 11.7977C94.4618 11.8996 94.8886 12.1545 95.2029 12.5231C95.5172 12.8916 95.7015 13.3533 95.7274 13.837C95.7534 14.3206 95.6194 14.7994 95.3463 15.1994C95.0732 15.5994 94.676 15.8985 94.2161 16.0504C91.9936 16.9984 89.7512 15.5333 87.9408 14.364C83.8157 11.6996 79.2784 9.29006 74.2799 8.98642C69.6551 8.70552 64.6958 10.5189 62.1234 14.5294C61.6733 15.2311 62.7907 15.8795 63.2386 15.1813C65.7897 11.2038 70.9471 9.77523 75.4313 10.39C78.1036 10.8117 80.684 11.6877 83.0607 12.9802C84.2932 13.6199 85.4886 14.3289 86.6598 15.0743C87.7743 15.852 88.9557 16.5292 90.19 17.098C92.2484 17.9436 94.9734 17.8775 96.4112 15.9307C96.7162 15.4694 96.909 14.9431 96.9742 14.3939C97.0395 13.8448 96.9753 13.2879 96.7869 12.768C96.5985 12.2481 96.2911 11.7794 95.8892 11.3995C95.4873 11.0196 95.0021 10.739 94.4724 10.5801C93.9802 10.4831 93.4716 10.5097 92.9923 10.6576C92.5129 10.8055 92.0778 11.07 91.7258 11.4275C91.3739 11.7849 91.1161 12.2241 90.9756 12.7057C90.8352 13.1872 90.8165 13.6961 90.9211 14.1867C91.2723 15.2815 91.8337 16.2973 92.5737 17.1772C94.4467 19.812 96.887 21.9932 99.7147 23.5599C102.543 25.1267 105.686 26.0391 108.913 26.2299C109.744 26.271 109.741 24.9795 108.913 24.9385L108.913 24.9385Z" fill="#FFB66A"/>
<path d="M108.556 39.4549H104.708V52.0978H108.556V39.4549Z" fill="#FFB66A"/>
<path d="M49.6298 57.0302L52.304 54.3561L43.5174 45.5696L40.8433 48.2437L49.6298 57.0302Z" fill="#FFF6EA"/>
<path d="M180.503 71.0837L183.177 73.7578L191.964 64.9713L189.289 62.2972L180.503 71.0837Z" fill="#FFF6EA"/>
<path d="M48.5378 192.878L51.2119 195.552L59.9984 186.766L57.3243 184.092L48.5378 192.878Z" fill="#FF8200"/>
<path d="M149.146 198.979L152.462 197.161L146.488 186.265L143.171 188.083L149.146 198.979Z" fill="#FF8200"/>
<path d="M98.9972 119.403C93.1828 99.8832 128.069 93.2728 146.239 92.4075L157.661 109.539L146.239 128.748L125.993 147.437C119.417 146.225 104.812 138.923 98.9972 119.403Z" fill="#FFE9D0"/>
<g clip-path="url(#clip0_1_650)">
<path fill-rule="evenodd" clip-rule="evenodd" d="M82 118C82 106.861 86.425 96.178 94.3015 88.3015C102.178 80.425 112.861 76 124 76C135.139 76 145.822 80.425 153.698 88.3015C161.575 96.178 166 106.861 166 118C166 129.139 161.575 139.822 153.698 147.698C145.822 155.575 135.139 160 124 160C112.861 160 102.178 155.575 94.3015 147.698C86.425 139.822 82 129.139 82 118V118ZM121.603 135.976L145.784 105.747L141.416 102.253L120.797 128.018L106.192 115.85L102.608 120.15L121.603 135.982V135.976Z" fill="#FF8200"/>
</g>
<defs>
<clipPath id="clip0_1_650">
<rect width="84" height="84" fill="white" transform="translate(82 76)"/>
</clipPath>
</defs>
</svg>
