<svg width="37" height="37" viewBox="0 0 37 37" fill="none" xmlns="http://www.w3.org/2000/svg">
<circle opacity="0.4" cx="18.5" cy="18.4998" r="18.3333" fill="white"/>
<path fill-rule="evenodd" clip-rule="evenodd" d="M14.0207 11.2977C14.3174 9.59362 14.7146 8.06197 15.1868 6.76357C15.7244 5.2851 16.3369 4.17099 16.9582 3.44836C17.5827 2.72193 18.1078 2.50692 18.5002 2.50692C18.8925 2.50692 19.4176 2.72193 20.0421 3.44836C20.6634 4.17099 21.2759 5.2851 21.8135 6.76357C22.2857 8.06197 22.6829 9.59362 22.9796 11.2977C21.5443 11.1608 20.0429 11.0885 18.5002 11.0885C16.9574 11.0885 15.4561 11.1608 14.0207 11.2977ZM11.5994 11.599C11.9254 9.49467 12.3977 7.58516 12.9873 5.96375C13.5791 4.33631 14.3114 2.93696 15.1835 1.92259C16.0523 0.912015 17.1691 0.166504 18.5002 0.166504C19.8312 0.166504 20.948 0.912015 21.8168 1.92259C22.6889 2.93696 23.4212 4.33631 24.013 5.96375C24.6026 7.58516 25.0749 9.49467 25.4009 11.599C27.5053 11.925 29.4148 12.3973 31.0362 12.9869C32.6636 13.5787 34.063 14.311 35.0774 15.1831C36.0879 16.0519 36.8334 17.1687 36.8334 18.4998C36.8334 19.8309 36.0879 20.9476 35.0774 21.8165C34.063 22.6885 32.6636 23.4209 31.0362 24.0127C29.4148 24.6023 27.5053 25.0745 25.4009 25.4005C25.0749 27.5049 24.6026 29.4144 24.013 31.0358C23.4212 32.6633 22.6889 34.0626 21.8168 35.077C20.948 36.0876 19.8312 36.8331 18.5002 36.8331C17.1691 36.8331 16.0523 36.0876 15.1835 35.077C14.3114 34.0626 13.5791 32.6633 12.9873 31.0358C12.3977 29.4144 11.9254 27.5049 11.5994 25.4005C9.49504 25.0745 7.58553 24.6023 5.96412 24.0127C4.33668 23.4209 2.93732 22.6885 1.92295 21.8165C0.912381 20.9476 0.16687 19.8309 0.16687 18.4998C0.16687 17.1687 0.912381 16.0519 1.92295 15.1831C2.93732 14.311 4.33668 13.5787 5.96412 12.9869C7.58553 12.3973 9.49504 11.925 11.5994 11.599ZM11.2981 22.9792C9.59399 22.6825 8.06234 22.2853 6.76394 21.8132C5.28547 21.2755 4.17135 20.663 3.44872 20.0418C2.7223 19.4172 2.50729 18.8921 2.50729 18.4998C2.50729 18.1074 2.7223 17.5823 3.44872 16.9578C4.17135 16.3365 5.28547 15.724 6.76394 15.1864C8.06234 14.7143 9.59399 14.317 11.2981 14.0203C11.1611 15.4557 11.0888 16.9571 11.0888 18.4998C11.0888 20.0425 11.1611 21.5439 11.2981 22.9792ZM13.685 23.315C13.5192 21.7968 13.4292 20.1805 13.4292 18.4998C13.4292 16.8191 13.5192 15.2028 13.685 13.6846C15.2031 13.5189 16.8195 13.4289 18.5002 13.4289C20.1808 13.4289 21.7972 13.5189 23.3153 13.6846C23.4811 15.2028 23.5711 16.8191 23.5711 18.4998C23.5711 20.1805 23.4811 21.7968 23.3153 23.315C21.7972 23.4807 20.1808 23.5707 18.5002 23.5707C16.8195 23.5707 15.2031 23.4807 13.685 23.315ZM14.0207 25.7019C14.3174 27.4059 14.7146 28.9376 15.1868 30.236C15.7244 31.7145 16.3369 32.8286 16.9582 33.5512C17.5827 34.2776 18.1078 34.4926 18.5002 34.4926C18.8925 34.4926 19.4176 34.2776 20.0421 33.5512C20.6634 32.8286 21.2759 31.7145 21.8135 30.236C22.2857 28.9376 22.6829 27.4059 22.9796 25.7019C21.5443 25.8388 20.0429 25.9111 18.5002 25.9111C16.9574 25.9111 15.4561 25.8388 14.0207 25.7019ZM25.7022 22.9792C27.4063 22.6825 28.938 22.2853 30.2364 21.8132C31.7148 21.2755 32.8289 20.663 33.5516 20.0418C34.278 19.4172 34.493 18.8921 34.493 18.4998C34.493 18.1074 34.278 17.5823 33.5516 16.9578C32.8289 16.3365 31.7148 15.724 30.2364 15.1864C28.938 14.7143 27.4063 14.317 25.7022 14.0203C25.8392 15.4557 25.9115 16.9571 25.9115 18.4998C25.9115 20.0425 25.8392 21.5439 25.7022 22.9792Z" fill="white"/>
</svg>
