<svg width="55" height="39" viewBox="0 0 55 39" fill="none" xmlns="http://www.w3.org/2000/svg">
<path d="M14.3686 38.8747C11.7442 38.8747 9.35417 38.2174 7.19841 36.9028C5.13638 35.4943 3.49613 33.6163 2.27766 31.2688C1.05919 28.8274 0.449951 26.0574 0.449951 22.9586C0.449951 20.5172 0.965458 18.1228 1.99647 15.7753C3.02749 13.4277 4.43342 11.2211 6.21426 9.15528C8.08883 7.08948 10.2446 5.25842 12.6815 3.66212C15.1185 2.06581 17.7429 0.845103 20.5547 0L25.8973 6.47912C22.2418 8.16933 19.2425 10.0943 16.8993 12.254C14.5561 14.4137 13.3845 16.2917 13.3845 17.888C13.3845 19.1087 13.9 20.1886 14.931 21.1276C15.962 22.0666 16.8993 22.9117 17.7429 23.6629C19.8049 25.3531 21.164 26.7616 21.8201 27.8884C22.5699 29.0152 22.9448 30.189 22.9448 31.4097C22.9448 33.6633 22.1481 35.4943 20.5547 36.9028C18.9613 38.2174 16.8993 38.8747 14.3686 38.8747ZM43.4714 38.8747C40.847 38.8747 38.4569 38.2174 36.3011 36.9028C34.2391 35.4943 32.5989 33.6163 31.3804 31.2688C30.1619 28.8274 29.5527 26.0574 29.5527 22.9586C29.5527 20.5172 30.0682 18.1228 31.0992 15.7753C32.1302 13.4277 33.5361 11.2211 35.317 9.15528C37.1916 7.08948 39.3473 5.25842 41.7843 3.66212C44.2212 2.06581 46.8456 0.845103 49.6575 0L55 6.47912C51.3446 8.16933 48.3453 10.0943 46.002 12.254C43.6588 14.4137 42.4872 16.2917 42.4872 17.888C42.4872 19.1087 43.0027 20.1886 44.0337 21.1276C45.0648 22.0666 46.002 22.9117 46.8456 23.6629C48.9076 25.3531 50.2667 26.7616 50.9228 27.8884C51.6726 29.0152 52.0475 30.189 52.0475 31.4097C52.0475 33.6633 51.2508 35.4943 49.6575 36.9028C48.0641 38.2174 46.002 38.8747 43.4714 38.8747Z" fill="#EFEFEF"/>
</svg>
